<?xml version="1.0" encoding="utf-8"?>
<!-- Generator: Adobe Illustrator 28.3.0, SVG Export Plug-In . SVG Version: 6.00 Build 0)  -->
<svg version="1.1" id="Layer_1" xmlns="http://www.w3.org/2000/svg" xmlns:xlink="http://www.w3.org/1999/xlink" x="0px" y="0px"
	 viewBox="0 0 798.3 616.4" style="enable-background:new 0 0 798.3 616.4;" xml:space="preserve">
<style type="text/css">
	.st0{clip-path:url(#SVGID_00000115506831704449495860000013798642299447939239_);}
	.st1{fill:none;stroke:#1F77B4;stroke-width:1.5;stroke-linecap:square;stroke-linejoin:round;}
	.st2{clip-path:url(#SVGID_00000044881697949425350210000000536376431529149059_);}
	.st3{fill:none;stroke:#FF7F0E;stroke-width:1.5;stroke-linecap:square;stroke-linejoin:round;}
	.st4{clip-path:url(#SVGID_00000029037301651151284320000001097172877643736723_);}
	.st5{fill:none;stroke:#2CA02C;stroke-width:1.5;stroke-linecap:square;stroke-linejoin:round;}
	.st6{clip-path:url(#SVGID_00000116201399396587426400000016354825691121708193_);}
	.st7{fill:none;stroke:#D62728;stroke-width:1.5;stroke-linecap:square;stroke-linejoin:round;}
	.st8{clip-path:url(#SVGID_00000089557761173474650000000011105296440086296995_);}
	.st9{fill:none;stroke:#9467BD;stroke-width:1.5;stroke-linecap:square;stroke-linejoin:round;}
	.st10{fill:none;stroke:#999999;stroke-width:0.4;stroke-miterlimit:10;stroke-dasharray:0,0,10,10;}
	.st11{enable-background:new    ;}
	.st12{fill:#0B0B0B;}
	.st13{font-family:'AkkuratLL-Bold';}
	.st14{font-size:17.09px;}
	.st15{font-family:'AkkuratLL-Light';}
	.st16{font-size:11.4px;}
	.st17{font-size:9.97px;}
	.st18{fill:#0C0C0C;}
	.st19{font-size:11px;}
	.st20{font-size:12px;}
	.st21{fill:none;stroke:#000000;stroke-width:0.4;stroke-miterlimit:10;}
	.st22{fill:none;stroke:#000000;stroke-width:0.25;stroke-miterlimit:10;}
	.st23{font-family:'ArialMT';}
	.st24{font-size:10px;}
	.st25{fill:none;stroke:#231F20;stroke-width:0.25;stroke-miterlimit:10;}
</style>
<g id="figure_1">
	<g id="axes_1">
		<g id="line2d_1">
			<g>
				<defs>
					<rect id="SVGID_1_" x="-30.9" y="70.5" width="1256.4" height="494.5"/>
				</defs>
				<clipPath id="SVGID_00000139285434872895509680000008822737527428944768_">
					<use xlink:href="#SVGID_1_"  style="overflow:visible;"/>
				</clipPath>
				<g style="clip-path:url(#SVGID_00000139285434872895509680000008822737527428944768_);">
					<path class="st1" d="M26.2,542.5h35.1l8.8-6.7l8.8-10h52.7l8.8-6.7l8.8-10h193.3l8.8-6.7l8.8-10l8.8-6.7l8.8-10h35.1l8.8-6.7
						l8.8-10l8.8-6.7l8.8-10l8.8-6.7l8.8-10l8.8-6.7l8.8-10l17.6-33.3l8.8-56.6l8.8-59.9l8.8-40l8.8-43.3l17.6-66.6l35.1,333l0,0"/>
				</g>
			</g>
		</g>
		<g id="line2d_2">
			<g>
				<defs>
					<rect id="SVGID_00000023240202006840461370000006045568218728290480_" x="-30.9" y="70.5" width="1256.4" height="494.5"/>
				</defs>
				<clipPath id="SVGID_00000124873253008684252980000004261444099512156815_">
					<use xlink:href="#SVGID_00000023240202006840461370000006045568218728290480_"  style="overflow:visible;"/>
				</clipPath>
				<g style="clip-path:url(#SVGID_00000124873253008684252980000004261444099512156815_);">
					<path class="st3" d="M26.2,492.5c4.8-8.1,8.8-16.1,12.8-25.1c1-3,3-5,5-7c4-5,9-8,13-13c8-11,12-23,20-35c8-11,18-19,29-27
						c8-8,14-17,18-27s10-18,19-24c2-2,5-5,6-8c6-20,10-39,15-59c4-14,11-26,20-39c1-2,2-5,2-7c4-38,11-75,16-112c7-1,12,3,16,8
						c5,8,5,18,10.6,25.3c3-1.8-1.9-3.2,0,0c2.4-1.3,4.4-2.3,6.4-4.3c6-6,10-11,17-16c5-4,7-10,12-14c7-4,10-10,16-14c2-1,3-1,5-3
						c1-1,4-1,5,2c3,7,3,14,5,21c4,12,9,22,21,30c3,2,2,7,3,11c3,29,5,56,13,84c3,11,9,21,9,32c0,1,1,4,2,4c6,0,12,1,18-1
						c8-3,10-13,18-15c5-2,11,2,17-1c13-10,23-20,33-32c18-3,35,0,53-1c7,5,13,11,19,17c6,9,13,17,24,17c15,0,29,0,44-1
						c8,5,12,15,22,18c5,1,11-3,16,0c13,11,24,23,36,35c9,18,17,37,34,48h34c5,5,9,12,16,15c12,3,24,0,35.9,1.1"/>
				</g>
			</g>
		</g>
		<g id="line2d_3">
			<g>
				<defs>
					<rect id="SVGID_00000029736823726425867130000012380334059389992091_" x="-30.9" y="70.5" width="1256.4" height="494.5"/>
				</defs>
				<clipPath id="SVGID_00000042007645689541980290000017243909778196259475_">
					<use xlink:href="#SVGID_00000029736823726425867130000012380334059389992091_"  style="overflow:visible;"/>
				</clipPath>
				<g style="clip-path:url(#SVGID_00000042007645689541980290000017243909778196259475_);">
					<path class="st5" d="M26.2,509.2h17.6l8.8-6.7l8.8-10l8.8-6.7l8.8-10l17.6-33.3l8.8-6.7l8.8-10l17.6-33.3l8.8-6.7l8.8-10
						l35.1-66.6h17.6l8.8-6.7l8.8-10l52.7-99.9l8.8-6.7l8.8-10l8.8-26.6l8.8-23.3l8.8,16.6l8.8,93.2l8.8,89.9l17.6,99.9l8.8,10
						l8.8,6.7h17.6l8.8-6.7l8.8-10l17.6-33.3h35.1l8.8-6.7l8.8-10h87.9l8.8,10l8.8,6.7l8.8,10l8.8,6.7h17.6l8.8,10l8.8,6.7l8.8,26.6
						l8.8,23.3h17.6"/>
				</g>
			</g>
		</g>
		<g id="line2d_4">
			<g>
				<defs>
					<rect id="SVGID_00000141452305657742085820000016453657496125340607_" x="-30.9" y="70.5" width="1256.4" height="494.5"/>
				</defs>
				<clipPath id="SVGID_00000034793383347495634670000014191439406311438470_">
					<use xlink:href="#SVGID_00000141452305657742085820000016453657496125340607_"  style="overflow:visible;"/>
				</clipPath>
				<g style="clip-path:url(#SVGID_00000034793383347495634670000014191439406311438470_);">
					<path class="st7" d="M26.2,542.5h35.1l8.8-6.7l8.8-10h52.7l8.8-6.7l8.8-10h35.1l8.8-6.7l8.8-10H237l8.8-6.7l8.8-10l17.6-33.3
						l8.8-6.7l8.8-10l17.6-33.3l8.8-23.3l8.8-26.6l8.8-23.3l8.8-26.6l8.8-40l8.8-43.3l17.6-66.6l8.8-6.7l8.8-10l8.8,10l8.8,6.7
						l35.1,66.6l8.8,26.6l8.8,23.3l8.8,26.6l8.8,23.3l17.6,33.3l8.8,10l8.8,6.7l17.6,33.3l8.8,10l8.8,6.7l17.6,33.3h17.6l8.8,10
						l8.8,6.7l8.8,10l8.8,6.7l8.8,10l8.8,6.7l0,0"/>
				</g>
			</g>
		</g>
		<g id="line2d_5">
			<g>
				<defs>
					<rect id="SVGID_00000098928715030943573310000006376158717186469798_" x="-30.9" y="70.5" width="1256.4" height="494.5"/>
				</defs>
				<clipPath id="SVGID_00000008112661115257638900000011065258142798943926_">
					<use xlink:href="#SVGID_00000098928715030943573310000006376158717186469798_"  style="overflow:visible;"/>
				</clipPath>
				<g style="clip-path:url(#SVGID_00000008112661115257638900000011065258142798943926_);">
					<path class="st9" d="M26.2,525.8h17.6l8.8-6.7l8.8-10h105.4l8.8-6.7l8.8-10l8.8-6.7l8.8-10h35l35.1-66.6l17.6-66.6l8.8-23.3
						l8.8-26.6l8.8-23.3l8.8-26.6l8.8-23.3l8.8-26.6l8.8-6.7l8.8-10l17.6,33.3h35.1l8.8,10l8.8,6.7l8.8,26.6L448,276l105.4,199.8
						l8.8,10l8.8,6.7l8.8,10l8.8,6.7l0,0"/>
				</g>
			</g>
		</g>
	</g>
</g>
<line class="st10" x1="55" y1="163.9" x2="758.4" y2="163.9"/>
<g id="title">
	<g class="st11">
		<text transform="matrix(0.92 0 0 1 25.2603 53.3203)" class="st12 st13 st14">S</text>
		<text transform="matrix(0.92 0 0 1 35.3101 53.3203)" class="st12 st13 st14">t</text>
		<text transform="matrix(0.92 0 0 1 41.5303 53.3203)" class="st12 st13 st14">orms showing</text>
		<text transform="matrix(0.92 0 0 1 146.6499 53.3203)" class="st12 st13 st14">e</text>
		<text transform="matrix(0.92 0 0 1 155.3101 53.3203)" class="st12 st13 st14">xt</text>
		<text transform="matrix(0.92 0 0 1 170.1001 53.3203)" class="st12 st13 st14">r</text>
		<text transform="matrix(0.92 0 0 1 176.1802 53.3203)" class="st12 st13 st14">eme</text>
		<text transform="matrix(0.92 0 0 1 207.8999 53.3203)" class="st12 st13 st14">l</text>
		<text transform="matrix(0.92 0 0 1 212.4199 53.3203)" class="st12 st13 st14">y</text>
		<text transform="matrix(0.92 0 0 1 223.9302 53.3203)" class="st12 st13 st14">r</text>
		<text transform="matrix(0.92 0 0 1 229.9399 53.3203)" class="st12 st13 st14">apid i</text>
		<text transform="matrix(0.92 0 0 1 270.1499 53.3203)" class="st12 st13 st14">n</text>
		<text transform="matrix(0.92 0 0 1 279.3701 53.3203)" class="st12 st13 st14">t</text>
		<text transform="matrix(0.92 0 0 1 285.6001 53.3203)" class="st12 st13 st14">ensific</text>
		<text transform="matrix(0.92 0 0 1 335.3599 53.3203)" class="st12 st13 st14">a</text>
		<text transform="matrix(0.92 0 0 1 343.96 53.3203)" class="st12 st13 st14">tion</text>
	</g>
	<g class="st11">
		<g class="st11">
			<text transform="matrix(0.92 0 0 1 25.7803 71.5)" class="st15 st16">As d</text>
			<text transform="matrix(0.92 0 0 1 46.3701 71.5)" class="st15 st16">e</text>
			<text transform="matrix(0.92 0 0 1 52.1602 71.5)" class="st15 st16">fined</text>
			<text transform="matrix(0.92 0 0 1 79.0703 71.5)" class="st15 st16">b</text>
			<text transform="matrix(0.92 0 0 1 85.2402 71.5)" class="st15 st16">y</text>
			<text transform="matrix(0.92 0 0 1 90.1899 71.5)" class="st15 st16"> an inc</text>
			<text transform="matrix(0.92 0 0 1 121.1201 71.5)" class="st15 st16">r</text>
			<text transform="matrix(0.92 0 0 1 124.8501 71.5)" class="st15 st16">ease</text>
			<text transform="matrix(0.92 0 0 1 150.0498 71.5)" class="st15 st16">o</text>
			<text transform="matrix(0.92 0 0 1 155.9399 71.5)" class="st15 st16">f</text>
			<text transform="matrix(0.92 0 0 1 159.4502 71.5)" class="st15 st16"> a lea</text>
			<text transform="matrix(0.92 0 0 1 184.4102 71.5)" class="st15 st16">s</text>
			<text transform="matrix(0.92 0 0 1 189.5703 71.5)" class="st15 st16">t 58 mph</text>
			<text transform="matrix(0.92 0 0 1 234.3301 71.5)" class="st15 st16">within</text>
			<text transform="matrix(0.92 0 0 1 265.7402 71.5)" class="st15 st16">2</text>
			<text transform="matrix(0.92 0 0 1 271.25 71.5)" class="st15 st16">4 hou</text>
			<text transform="matrix(0.92 0 0 1 297.71 71.5)" class="st15 st16">r</text>
			<text transform="matrix(0.92 0 0 1 301.5898 71.5)" class="st15 st16">s</text>
		</g>
		<g class="st11">
			<text transform="matrix(0.92 0 0 1 25.7803 85.7002)" class="st15 st17">A</text>
			<text transform="matrix(0.92 0 0 1 31.46 85.7002)" class="st15 st17"> small selection</text>
		</g>
	</g>
</g>
<g id="labels">
	<g class="st11">
		<text transform="matrix(1 0 0 1 557.65 105.1499)" class="st18 st13 st19">Otis</text>
	</g>
	<g class="st11">
		<text transform="matrix(1.06 0 0 1 222.6904 191.0098)" class="st18 st13 st19">Michael</text>
	</g>
	<g class="st11">
		<text transform="matrix(1 0 0 1 397.13 122.98)" class="st18 st13 st20">J</text>
		<text transform="matrix(1 0 0 1 403.14 122.98)" class="st18 st13 st20">o</text>
		<text transform="matrix(1 0 0 1 410.17 122.98)" class="st18 st13 st20">v</text>
		<text transform="matrix(1 0 0 1 416.35 122.98)" class="st18 st13 st20">a</text>
	</g>
	<g class="st11">
		<text transform="matrix(1.11 0 0 1 268.4204 293.4297)" class="st18 st13 st19">Hila</text>
		<text transform="matrix(1.11 0 0 1 291.0645 293.4297)" class="st18 st13 st19">r</text>
		<text transform="matrix(1.11 0 0 1 296.8804 293.4297)" class="st18 st13 st20">y</text>
	</g>
</g>
<line class="st21" x1="51.2" y1="560" x2="754.6" y2="560"/>
<g>
	<line class="st22" x1="452.9" y1="594.4" x2="468.2" y2="594.4"/>
	<path d="M469.7,594.4c-0.7,0.3-1.6,0.7-2.1,1.2l0.4-1.2l-0.4-1.2C468.1,593.7,469,594.1,469.7,594.4z"/>
</g>
<g id="x-axis">
	<g class="st11">
		<text transform="matrix(1.47 0 0 1 123.1699 576.3599)" class="st23 st24">2</text>
	</g>
	<g class="st11">
		<text transform="matrix(1.47 0 0 1 263.8594 576.27)" class="st23 st24">4</text>
	</g>
	<g class="st11">
		<text transform="matrix(1.47 0 0 1 411.8896 576.27)" class="st23 st24">6</text>
	</g>
	<g class="st11">
		<text transform="matrix(1.47 0 0 1 555.6494 576.27)" class="st23 st24">8</text>
	</g>
	<g class="st11">
		<text transform="matrix(1.47 0 0 1 706.3496 576.27)" class="st23 st24">10</text>
	</g>
</g>
<line class="st25" x1="127.3" y1="560" x2="127.3" y2="564"/>
<line class="st25" x1="269.2" y1="560.2" x2="269.2" y2="564.1"/>
<line class="st25" x1="416.1" y1="559.8" x2="416.1" y2="564.7"/>
<line class="st25" x1="559.8" y1="560" x2="559.8" y2="564.9"/>
<line class="st25" x1="712.6" y1="560" x2="712.6" y2="564.9"/>
<line class="st10" x1="53.3" y1="446.9" x2="756.7" y2="446.9"/>
<line class="st10" x1="55.3" y1="309.9" x2="758.7" y2="309.9"/>
<g class="st11">
	<text transform="matrix(1 0 0 1 211.6 105.8799)" class="st18 st13 st19">M</text>
	<text transform="matrix(1 0 0 1 221.27 105.8799)" class="st18 st13 st19">aria</text>
</g>
<g class="st11">
	<g class="st11">
		<text transform="matrix(1.47 0 0 1 4.9497 147.96)" class="st23 st24">150 mph</text>
	</g>
	<g class="st11">
		<text transform="matrix(1.47 0 0 1 4.9497 157.6602)" class="st23 st24">wind speed</text>
	</g>
</g>
<g class="st11">
	<text transform="matrix(1.47 0 0 1 8.3096 312.5801)" class="st23 st24">100</text>
</g>
<g class="st11">
	<text transform="matrix(1.47 0 0 1 8.1196 448.6499)" class="st23 st24">50</text>
</g>
<text transform="matrix(1 0 0 1 310.34 596.78)" class="st15 st20">D</text>
<text transform="matrix(1 0 0 1 318.58 596.78)" class="st15 st20">a</text>
<text transform="matrix(1 0 0 1 325.11 596.78)" class="st15 st20">ys since </text>
<text transform="matrix(1 0 0 1 372.09 596.78)" class="st15 st20">s</text>
<text transform="matrix(1 0 0 1 378.05 596.78)" class="st15 st20">ta</text>
<text transform="matrix(1 0 0 1 389.38 596.78)" class="st15 st20">r</text>
<text transform="matrix(1 0 0 1 394.04 596.78)" class="st15 st20">t </text>
<text transform="matrix(1 0 0 1 401.6 596.78)" class="st15 st20">o</text>
<text transform="matrix(1 0 0 1 408.4 596.78)" class="st15 st20">f</text>
<text transform="matrix(1 0 0 1 412.47 596.78)" class="st15 st20"> </text>
<text transform="matrix(1 0 0 1 415.35 596.78)" class="st15 st20">s</text>
<text transform="matrix(1 0 0 1 421.31 596.78)" class="st15 st20">t</text>
<text transform="matrix(1 0 0 1 425.81 596.78)" class="st15 st20">orm</text>
</svg>
