<?xml version="1.0" encoding="utf-8"?>
<!-- Generator: Adobe Illustrator 28.3.0, SVG Export Plug-In . SVG Version: 6.00 Build 0)  -->
<svg version="1.1" id="Layer_1" xmlns="http://www.w3.org/2000/svg" xmlns:xlink="http://www.w3.org/1999/xlink" x="0px" y="0px"
	 viewBox="0 0 798.3 616.4" style="enable-background:new 0 0 798.3 616.4;" xml:space="preserve">
<style type="text/css">
	.st0{fill:none;stroke:#1F77B4;stroke-width:1.5;stroke-linecap:square;stroke-linejoin:round;}
	.st1{fill:none;stroke:#FF7F0E;stroke-width:1.5;stroke-linecap:square;stroke-linejoin:round;}
	.st2{fill:none;stroke:#2CA02C;stroke-width:1.5;stroke-linecap:square;stroke-linejoin:round;}
	.st3{fill:none;stroke:#D62728;stroke-width:1.5;stroke-linecap:square;stroke-linejoin:round;}
	.st4{fill:none;stroke:#9467BD;stroke-width:1.5;stroke-linecap:square;stroke-linejoin:round;}
	.st5{fill:none;stroke:#999999;stroke-width:0.4;stroke-miterlimit:10;stroke-dasharray:0,0,10,10;}
	.st6{fill:none;stroke:#000000;stroke-width:0.4;stroke-miterlimit:10;}
	.st7{fill:none;stroke:#000000;stroke-width:0.5;stroke-miterlimit:10;}
	.st8{fill:none;stroke:#231F20;stroke-width:0.25;stroke-miterlimit:10;}
	.st9{font-family:'AkkuratLL-Bold';}
	.st10{font-size:26px;}
	.st11{font-family:'AkkuratLL-Light';}
	.st12{font-size:18px;}
	.st13{font-size:16px;}
	.st14{font-family:'AkkuratLL-Regular';}
</style>
<g id="axes_1">
	<path class="st0" d="M26.2,542.5h35.1l8.8-6.7l8.8-10h52.7l8.8-6.7l8.8-10h193.3l8.8-6.7l8.8-10l8.8-6.7l8.8-10h35.1l8.8-6.7
		l8.8-10l8.8-6.7l8.8-10l8.8-6.7l8.8-10l8.8-6.7l8.8-10l17.6-33.3l17.6-116.5l17.6-83.3l17.6-66.6l35.1,333"/>
	<path class="st1" d="M26.2,492.5c4.8-8.1,8.8-16.1,12.8-25.1c1-3,3-5,5-7c4-5,9.1-7.9,13-13c8.3-10.8,11.8-23.2,20-35
		c7.8-11.2,18-19,29-27c8-8,14-17,18-27s10-18,19-24c2-2,5-5,6-8c6.3-19.9,9.7-39.1,15-59c3.8-14.1,11-26,20-39c1-2,2-5,2-7
		c4-38,11-75,16-112c7-1,12,3,16,8c5,8,5,18,10.6,25.3c3-1.8-1.9-3.2,0,0c2.4-1.3,4.4-2.3,6.4-4.3c6-6,10-11,17-16c5-4,7-10,12-14
		c7-4,10-10,16-14c2-1,3-1,5-3c1-1,4-1,5,2c3,7,2.8,14,5,21c3.7,12.1,9,22,21,30c3,2,2,7,3,11c3,29,5.2,56,13,84c3.1,11,9,21,9,32
		c0,1,1,4,2,4c6,0,12,1.1,18-1c8.1-2.9,10-13,18-15c5-2,11,2,17-1c13-10,23-20,33-32c18-3,35,0,53-1c7,5,13,11,19,17
		c6,9,13,17,24,17c15,0,29,0,44-1c8,5,12,15,22,18c5,1,11-3,16,0c13,11,24,23,36,35c9,18,17,37,34,48h34c5,5,9,12,16,15
		c12,3,24,0,35.9,1.1"/>
	<path class="st2" d="M26.2,509.2h17.6l8.8-6.7l8.8-10l8.8-6.7l8.8-10l17.6-33.3l8.8-6.7l8.8-10l17.6-33.3l8.8-6.7l8.8-10l35.1-66.6
		h17.6l8.8-6.7l8.8-10l52.7-99.9l8.8-6.7l8.8-10l8.8-26.6l8.8-23.3l8.8,16.6L334,325.7l17.6,99.9l8.8,10l8.8,6.7h17.6l8.8-6.7
		l8.8-10l17.6-33.3h35.1l8.8-6.7l8.8-10h87.9l8.8,10l8.8,6.7l8.8,10l8.8,6.7h17.6l8.8,10l8.8,6.7l8.8,26.6l8.8,23.3h17.6"/>
	<path class="st3" d="M26.2,542.5h35.1l8.8-6.7l8.8-10h52.7l8.8-6.7l8.8-10h35.1l8.8-6.7l8.8-10H237l8.8-6.7l8.8-10l17.6-33.3
		l8.8-6.7l8.8-10l17.6-33.3l8.8-23.3l8.8-26.6l8.8-23.3l8.8-26.6l17.6-83.3l17.6-66.6l8.8-6.7l8.8-10l8.8,10l8.8,6.7l35.1,66.6
		l8.8,26.6l8.8,23.3l8.8,26.6l8.8,23.3l17.6,33.3l8.8,10l8.8,6.7l17.6,33.3l8.8,10l8.8,6.7l17.6,33.3h17.6l8.8,10l8.8,6.7l8.8,10
		l8.8,6.7l8.8,10l8.8,6.7"/>
	<path class="st4" d="M26.2,525.8h17.6l8.8-6.7l8.8-10h105.4l8.8-6.7l8.8-10l8.8-6.7l8.8-10h35l35.1-66.6l17.6-66.6l8.8-23.3
		l8.8-26.6l8.8-23.3l8.8-26.6l8.8-23.3l8.8-26.6l8.8-6.7l8.8-10l17.6,33.3h35.1l8.8,10l8.8,6.7l8.8,26.6L448,276l105.4,199.8l8.8,10
		l8.8,6.7l8.8,10l8.8,6.7"/>
</g>
<line class="st5" x1="55" y1="163.9" x2="758.4" y2="163.9"/>
<line class="st6" x1="51.2" y1="560" x2="754.6" y2="560"/>
<g>
	<line class="st7" x1="494.4" y1="600.4" x2="479.1" y2="600.4"/>
	<path d="M493.8,605.1l0.4-4.7l-0.4-4.7c0.5,2,1.4,3.5,2.1,4.7C495.2,601.6,494.3,603.2,493.8,605.1z"/>
</g>
<line class="st8" x1="127.3" y1="560" x2="127.3" y2="564"/>
<line class="st8" x1="269.2" y1="560.2" x2="269.2" y2="564.1"/>
<line class="st8" x1="416.1" y1="559.8" x2="416.1" y2="564.7"/>
<line class="st8" x1="559.8" y1="560" x2="559.8" y2="564.9"/>
<line class="st8" x1="712.6" y1="560" x2="712.6" y2="564.9"/>
<line class="st5" x1="53.3" y1="446.9" x2="756.7" y2="446.9"/>
<line class="st5" x1="55.3" y1="309.9" x2="758.7" y2="309.9"/>
<text transform="matrix(1 0 0 1 11.5586 32.8643)" class="st9 st10">Storms showing extremely rapid intensification</text>
<text transform="matrix(1 0 0 1 11.5586 56.0903)" class="st11 st12">as defined by a wind-speed increase of more than 58 mph in 24 hours</text>
<text transform="matrix(1 0 0 1 294.994 604.41)" class="st11 st13">days since start of storm</text>
<text transform="matrix(1 0 0 1 206.3262 105.3042)" class="st14 st12">Maria</text>
<text transform="matrix(1 0 0 1 8.9829 153.031)" class="st11 st12">150 mph wind speed</text>
<text transform="matrix(1 0 0 1 12.4165 309.9)" class="st11 st12">100</text>
<text transform="matrix(1 0 0 1 12.4165 446.9002)" class="st11 st12">50</text>
<text transform="matrix(1 0 0 1 212.5572 183.2309)" class="st14 st12">Michael</text>
<text transform="matrix(1 0 0 1 256.3853 291.6512)" class="st14 st12">Hilary</text>
<text transform="matrix(1 0 0 1 556.252 105.5144)" class="st14 st12">Otis</text>
<text transform="matrix(1 0 0 1 399.15 120.3501)" class="st14 st12">Jova</text>
<text transform="matrix(1 0 0 1 122.9019 582.4879)" class="st11 st12">2</text>
<text transform="matrix(1 0 0 1 264.9814 582.4877)" class="st11 st12">4 </text>
<text transform="matrix(1 0 0 1 412.934 582.4874)" class="st11 st12">6  </text>
<text transform="matrix(1 0 0 1 555.8043 582.6973)" class="st11 st12">8</text>
<text transform="matrix(1 0 0 1 706.5804 582.4877)" class="st11 st12">10</text>
</svg>
